<svg width="48" height="48" viewBox="0 0 48 48" fill="none" xmlns="http://www.w3.org/2000/svg">
<g clip-path="url(#clip0)">
<path d="M34.5541 17.5601L33.6731 19.6991H35.4441L34.5541 17.5601Z" fill="white"/>
<path d="M4.10489 17.5601L3.23389 19.6991H4.98289L4.10489 17.5601Z" fill="white"/>
<path d="M24.3201 17.8631C24.1681 17.7771 23.9341 17.7661 23.7121 17.7661H22.1321V18.9571H23.6911C23.9381 18.9571 24.1461 18.9531 24.3251 18.8471C24.4901 18.7601 24.5891 18.5711 24.5891 18.3371C24.5891 18.1071 24.4861 17.9411 24.3201 17.8631Z" fill="white"/>
<path d="M29.816 27.0931C29.66 27.0001 29.43 26.9961 29.204 26.9961H27.624V28.2011H29.183C29.433 28.2011 29.646 28.1931 29.819 28.0921C29.985 27.9901 30.084 27.8071 30.084 27.5761C30.081 27.3451 29.982 27.1791 29.816 27.0931Z" fill="white"/>
<path d="M23.5709 26.9939H21.8989V28.3609H23.5549C24.0479 28.3609 24.3549 28.1169 24.3549 27.6539C24.3539 27.1819 24.0349 26.9939 23.5709 26.9939Z" fill="white"/>
<path d="M47.2621 27.8C47.2531 27.791 47.2431 27.781 47.2341 27.774C47.4771 27.616 47.6391 27.342 47.6391 27.03V25.887C47.6391 25.396 47.2421 25 46.7521 25H44.1821C43.3811 25 42.7771 25.236 42.3371 25.592C42.2141 25.248 41.8981 25 41.5111 25H38.9411C38.2341 25 37.6771 25.175 37.2531 25.463C37.0991 25.188 36.8221 25 36.4901 25H32.2101C31.8651 25 31.5741 25.201 31.4271 25.488C31.3661 25.445 31.3211 25.395 31.2571 25.357C30.6361 25.025 29.9761 25 29.2961 25H26.3331C25.9881 25 25.6961 25.203 25.5501 25.492C25.0991 25.199 24.4681 25 23.5711 25H19.4731C19.2261 25 18.9911 25.1 18.8221 25.282L17.8511 26.329L16.9191 25.294C16.7521 25.103 16.5131 24.999 16.2601 24.999H11.1021C10.6121 24.999 10.2161 25.396 10.2161 25.886V31.253C10.2161 31.744 10.6131 32.14 11.1021 32.14H16.1831C16.4301 32.14 16.6651 32.037 16.8331 31.855L17.8121 30.796L18.7411 31.841C18.9091 32.031 19.1511 32.138 19.4041 32.138H21.8971C22.3881 32.138 22.7841 31.741 22.7841 31.253V30.337H23.4971C24.3641 30.337 24.9911 30.159 25.4471 29.888V31.253C25.4471 31.742 25.8441 32.138 26.3341 32.138H27.6231C28.1141 32.138 28.5101 31.741 28.5101 31.253V30.177H28.9931C29.1111 30.177 29.1941 30.181 29.2541 30.185C29.2581 30.281 29.2581 30.396 29.2561 30.472V31.253C29.2561 31.742 29.6551 32.138 30.1431 32.138H31.4301C31.5741 32.138 31.7041 32.099 31.8221 32.038C31.9421 32.097 32.0711 32.138 32.2131 32.138H36.4941C36.6331 32.138 36.7621 32.099 36.8791 32.042C36.9961 32.099 37.1221 32.138 37.2641 32.138H39.7621C40.5571 32.138 41.2051 31.943 41.6901 31.599C41.8231 31.915 42.1371 32.138 42.5041 32.138H45.0021C46.8191 32.138 47.9021 31.173 47.9021 29.558C47.9021 28.81 47.7001 28.253 47.2621 27.8ZM23.4981 29.45H21.8981V31.251H19.4051L17.8251 29.475L16.1831 31.251H11.1021V25.883H16.2601L17.8401 27.643L19.4721 25.883H23.5701C24.5871 25.883 25.7321 26.168 25.7321 27.654C25.7321 29.143 24.6201 29.453 23.4981 29.45ZM30.5911 28.759C30.8751 28.863 31.1081 29.052 31.2161 29.21C31.3991 29.472 31.4231 29.716 31.4291 30.189V31.253H30.1421V30.581C30.1421 30.259 30.1731 29.78 29.9331 29.53C29.7491 29.339 29.4641 29.294 28.9941 29.294H27.6241V31.253H26.3351V25.886H29.2981C29.9461 25.886 30.4181 25.913 30.8411 26.138C31.2451 26.382 31.5001 26.718 31.5001 27.329C31.5001 28.187 30.9271 28.624 30.5911 28.759ZM36.4921 26.995H33.4881V27.972H36.4181V29.068H33.4881V30.134L36.4921 30.14V31.253H32.2121V25.886H36.4921V26.995ZM39.7631 31.247H37.2651V30.094H39.7521C39.9941 30.094 40.1671 30.064 40.2751 29.961C40.3631 29.879 40.4251 29.756 40.4251 29.61C40.4251 29.454 40.3591 29.331 40.2691 29.256C40.1691 29.174 40.0371 29.137 39.8121 29.137C38.6141 29.098 37.1111 29.174 37.1111 27.477C37.1111 26.696 37.5991 25.879 38.9451 25.879H41.5151V27.021H39.1621C38.9271 27.021 38.7761 27.031 38.6481 27.119C38.5071 27.207 38.4541 27.336 38.4541 27.506C38.4541 27.709 38.5731 27.844 38.7341 27.906C38.8711 27.953 39.0151 27.967 39.2341 27.967L39.9231 27.987C40.6181 28.006 41.0971 28.126 41.3861 28.419C41.6381 28.678 41.7711 29.006 41.7711 29.557C41.7711 30.714 41.0521 31.253 39.7631 31.247ZM45.0041 31.247H42.5061V30.094H44.9941C45.2361 30.094 45.4091 30.064 45.5161 29.961C45.6041 29.879 45.6661 29.756 45.6661 29.61C45.6661 29.454 45.6001 29.331 45.5101 29.256C45.4111 29.174 45.2791 29.137 45.0531 29.137C43.8541 29.098 42.3521 29.174 42.3521 27.477C42.3521 26.696 42.8401 25.879 44.1861 25.879H46.7561V27.021H44.4041C44.1681 27.021 44.0161 27.031 43.8891 27.119C43.7481 27.207 43.6961 27.336 43.6961 27.506C43.6961 27.709 43.8161 27.844 43.9751 27.906C44.1131 27.953 44.2561 27.967 44.4751 27.967L45.1641 27.987C45.8601 28.006 46.3401 28.126 46.6291 28.419C46.8791 28.678 47.0141 29.006 47.0141 29.557C47.0141 30.714 46.2931 31.253 45.0041 31.247Z" fill="white"/>
<path d="M43.2359 15.762H41.9229C41.4319 15.762 41.0359 16.159 41.0359 16.648V17.202L40.4269 16.191C40.2649 15.926 39.9779 15.763 39.6689 15.763H37.7139C37.2239 15.763 36.8279 16.16 36.8279 16.649V17.402L36.3569 16.3C36.2179 15.975 35.8979 15.763 35.5439 15.763H33.6219C33.4269 15.763 33.2409 15.827 33.0929 15.939C32.9459 15.828 32.7609 15.763 32.5619 15.763H31.3229C30.2689 15.763 29.4889 16.018 28.9149 16.516C28.8489 16.093 28.4979 15.763 28.0559 15.763H26.7459C26.3959 15.763 26.1029 15.97 25.9569 16.262C25.9019 16.222 25.8599 16.174 25.7979 16.138C25.1959 15.79 24.5629 15.763 23.7999 15.763H20.8499C20.6839 15.763 20.5389 15.821 20.4049 15.9C20.2739 15.821 20.1269 15.763 19.9609 15.763H15.6769C15.4959 15.763 15.3389 15.83 15.1989 15.922C15.0579 15.83 14.9009 15.763 14.7209 15.763H12.5829C12.2289 15.763 11.9079 15.976 11.7689 16.304L11.0069 18.1L10.1679 16.278C10.0219 15.964 9.7069 15.763 9.3629 15.763H7.2689C6.7789 15.763 6.3829 16.16 6.3829 16.649V17.42L5.9019 16.298C5.7619 15.973 5.4419 15.762 5.0869 15.762H3.1829C2.8279 15.762 2.5079 15.974 2.3679 16.299L0.0719045 21.666C-0.0460955 21.941 -0.0170955 22.253 0.145905 22.503C0.309905 22.751 0.587904 22.901 0.885904 22.901H2.2799C2.6359 22.901 2.9589 22.685 3.0959 22.355L3.3669 21.703H4.8529L5.1199 22.351C5.2559 22.683 5.5799 22.9 5.9399 22.9H8.5489C9.0389 22.9 9.43491 22.503 9.43491 22.014V21.993L9.6029 22.374C9.7449 22.694 10.0629 22.901 10.4129 22.901L11.5399 22.903C11.8919 22.903 12.2079 22.696 12.3499 22.375L12.5199 21.995V22.017C12.5199 22.506 12.9159 22.902 13.4059 22.902H14.7209C14.9009 22.902 15.0579 22.834 15.1989 22.743C15.3389 22.834 15.4959 22.902 15.6769 22.902H19.9609C20.1269 22.902 20.2739 22.844 20.4049 22.765C20.5379 22.844 20.6839 22.902 20.8499 22.902H22.1339C22.6239 22.902 23.0199 22.505 23.0199 22.016V20.95H23.5099C23.6209 20.95 23.6999 20.953 23.7589 20.957C23.7649 21.048 23.7629 21.156 23.7629 21.228L23.7609 21.346L23.7659 22.023C23.7699 22.509 24.1669 22.902 24.6529 22.902H25.9469C26.0919 22.902 26.2229 22.857 26.3439 22.795C26.4669 22.858 26.5989 22.902 26.7449 22.902H28.0549C28.4849 22.902 28.8249 22.592 28.9079 22.188C29.6349 22.799 30.6589 22.902 31.2289 22.902H32.7319C33.0899 22.902 33.4139 22.682 33.5489 22.347L33.8099 21.704H35.2879L35.5589 22.356C35.6959 22.685 36.0179 22.901 36.3769 22.901H38.9869C39.4769 22.901 39.8729 22.504 39.8729 22.015V21.168L40.6599 22.473C40.8209 22.738 41.1079 22.901 41.4199 22.901H43.2359C43.7259 22.901 44.1219 22.504 44.1219 22.015V16.648C44.1219 16.159 43.7239 15.762 43.2359 15.762ZM14.7199 22.014H13.4049L13.3999 17.811L11.5399 22.014H10.4129L8.5499 17.807V22.014H5.9389L5.4459 20.817H2.7759L2.2779 22.014H0.883905L3.1809 16.647H5.0849L7.2679 21.729V16.647H9.36191L11.0409 20.288L12.5819 16.647H14.7199V22.014ZM19.9599 17.765H16.9579V18.732H19.8889V19.832H16.9579V20.904H19.9599V22.014H15.6759V16.647H19.9599V17.765ZM25.0969 19.524C25.3779 19.632 25.6179 19.82 25.7319 19.976C25.9139 20.243 25.9449 20.481 25.9449 20.96V22.013H24.6509L24.6449 21.336C24.6449 21.014 24.6759 20.55 24.4429 20.291C24.2559 20.103 23.9699 20.062 23.5079 20.062H22.1329V22.014H20.8489H20.8479V16.648H23.7979C24.4539 16.648 24.9369 16.665 25.3509 16.905C25.7569 17.145 25.9999 17.495 25.9999 18.094C25.9999 18.949 25.4289 19.392 25.0969 19.524ZM28.0559 22.014H26.7459V16.647H28.0559V22.014ZM43.2359 22.014H41.4189L38.9859 17.986V22.014H36.3759L35.8759 20.817H33.2099L32.7279 22.014H31.2259C30.6029 22.014 29.8159 21.876 29.3699 21.421C28.9159 20.965 28.6819 20.347 28.6819 19.372C28.6819 18.576 28.8229 17.848 29.3689 17.272C29.7819 16.844 30.4309 16.647 31.3169 16.647H32.5559V17.797H31.3409C30.8739 17.797 30.6089 17.866 30.3549 18.115C30.1359 18.341 29.9869 18.768 29.9869 19.331C29.9869 19.905 30.1009 20.319 30.3409 20.59C30.5399 20.803 30.8999 20.867 31.2349 20.867H31.8099L33.6219 16.647H35.5439L37.7139 21.723V16.647H39.6689L41.9229 20.385V16.647H43.2359V22.014ZM31.7879 18.684L31.2309 19.983C31.1079 19.983 31.0249 19.969 30.9789 19.957C30.9359 19.877 30.8769 19.7 30.8769 19.332C30.8769 18.96 30.9669 18.767 30.9789 18.75C31.0159 18.714 31.0469 18.683 31.3479 18.683L31.7879 18.684Z" fill="white"/>
<path d="M18.6509 28.5779L20.6209 30.7659V26.4629L18.6509 28.5779Z" fill="white"/>
<path d="M15.5971 26.9961H12.3831V27.9711H15.1981V29.0671H12.3831V30.1351H15.5351L17.0001 28.5581L15.5971 26.9961Z" fill="white"/>
</g>
<defs>
<clipPath id="clip0">
<rect width="47.902" height="47.902" fill="white"/>
</clipPath>
</defs>
</svg>
