<svg width="16" height="16" viewBox="0 0 16 16" fill="none" xmlns="http://www.w3.org/2000/svg">
<path d="M12.9464 3.2437C12.6095 3.25352 12.2897 3.39407 12.0545 3.63559C10.0016 5.69293 8.12733 7.71025 6.1559 9.72341L3.83833 7.86532C3.70524 7.75882 3.55247 7.67959 3.38875 7.63213C3.22503 7.58468 3.05357 7.56994 2.88415 7.58875C2.71474 7.60757 2.55069 7.65958 2.40137 7.7418C2.25205 7.82402 2.12039 7.93484 2.01391 8.06794C1.90743 8.20105 1.8282 8.35382 1.78077 8.51754C1.73333 8.68127 1.71861 8.85274 1.73744 9.02215C1.75627 9.19156 1.80829 9.35561 1.89052 9.50491C1.97275 9.65422 2.08359 9.78587 2.21671 9.89235L5.45995 12.4869C5.71008 12.6862 6.02498 12.786 6.34422 12.7673C6.66345 12.7486 6.96454 12.6127 7.18968 12.3856C9.52266 10.0476 11.6128 7.75124 13.8924 5.46666C14.0786 5.28398 14.2053 5.04943 14.2562 4.79361C14.3071 4.53779 14.2797 4.27258 14.1775 4.03258C14.0754 3.79257 13.9033 3.58892 13.6837 3.4482C13.4641 3.30747 13.2072 3.23621 12.9464 3.2437V3.2437Z" fill="white"/>
</svg>
