<svg width="364" height="242" viewBox="0 0 364 242" fill="none" xmlns="http://www.w3.org/2000/svg">
<g filter="url(#filter0_d)">
<path d="M337.008 20H27C21.4772 20 17 24.4772 17 30V213.953C17 219.476 21.4772 223.953 27 223.953H337.008C342.531 223.953 347.008 219.476 347.008 213.953V30C347.008 24.4772 342.531 20 337.008 20Z" fill="white"/>
</g>
<g clip-path="url(#clip0)">
<path d="M354 0H10C4.47715 0 0 4.47715 0 10V213.782C0 219.305 4.47715 223.782 10 223.782H354C359.523 223.782 364 219.305 364 213.782V10C364 4.47715 359.523 0 354 0Z" fill="url(#paint0_radial)"/>
<g opacity="0.2">
<path opacity="0.2" d="M-198.202 203.735C-163.541 163.75 -30.4249 30.465 213.646 20.435C298.18 16.962 369.607 27.443 424.105 40.635" stroke="#53AEE0" stroke-width="0.6" stroke-linecap="round"/>
<path opacity="0.2" d="M-198.202 204.333C-163.208 164.733 -28.051 31.733 216.23 25.05C286.317 22.8018 356.355 30.8543 424.103 48.95" stroke="#53AEE0" stroke-width="0.6" stroke-linecap="round"/>
<path opacity="0.2" d="M-198.202 204.963C-162.874 165.882 -25.657 33.604 218.814 29.663C288.26 28.4341 357.486 37.8111 424.102 57.47" stroke="#53AEE0" stroke-width="0.6" stroke-linecap="round"/>
<path opacity="0.2" d="M-198.202 205.56C-162.544 166.905 -23.27 35.107 221.398 34.272C290.216 33.9727 358.643 44.6398 424.105 65.872" stroke="#53AEE0" stroke-width="0.6" stroke-linecap="round"/>
<path opacity="0.2" d="M-198.202 206.146C-162.217 167.903 -20.877 36.566 223.983 38.884C292.19 39.5148 359.819 51.4705 424.109 74.263" stroke="#53AEE0" stroke-width="0.6" stroke-linecap="round"/>
<path opacity="0.2" d="M-198.203 206.724C-161.895 168.879 -18.48 37.977 226.566 43.495C294.176 45.0629 361.006 58.3076 424.103 82.644" stroke="#53AEE0" stroke-width="0.6" stroke-linecap="round"/>
<path opacity="0.2" d="M-198.202 207.291C-161.568 169.825 -16.0741 39.34 229.151 48.107C296.181 50.6178 362.214 65.1524 424.103 91.018" stroke="#53AEE0" stroke-width="0.6" stroke-linecap="round"/>
<path opacity="0.2" d="M-198.202 207.848C-161.248 170.748 -13.6651 40.648 231.734 52.716C308.918 56.516 374.234 77.059 424.103 99.373" stroke="#53AEE0" stroke-width="0.6" stroke-linecap="round"/>
<path opacity="0.2" d="M-198.202 208.397C-160.924 171.643 -11.243 41.912 234.319 57.329C310.45 62.109 374.897 84.094 424.105 107.729" stroke="#53AEE0" stroke-width="0.6" stroke-linecap="round"/>
<path opacity="0.2" d="M-198.202 208.939C-160.602 172.518 -8.81599 43.118 236.898 61.939C311.978 67.691 375.552 91.111 424.098 116.067" stroke="#53AEE0" stroke-width="0.6" stroke-linecap="round"/>
<path opacity="0.2" d="M-198.202 209.472C-160.286 173.367 -6.37399 44.272 239.487 66.55C313.513 73.258 376.211 98.115 424.1 124.393" stroke="#53AEE0" stroke-width="0.6" stroke-linecap="round"/>
<path opacity="0.2" d="M-198.202 209.998C-159.966 174.19 -3.91801 45.365 242.071 71.162C315.047 78.814 376.871 105.106 424.102 132.712" stroke="#53AEE0" stroke-width="0.6" stroke-linecap="round"/>
<path opacity="0.2" d="M-198.202 210.515C-159.648 174.994 -1.45105 46.403 244.656 75.773C316.582 84.356 377.537 112.084 424.105 141.021" stroke="#53AEE0" stroke-width="0.6" stroke-linecap="round"/>
<path opacity="0.2" d="M-198.202 211.027C-159.332 175.776 1.037 47.379 247.237 80.383C318.115 89.883 378.198 119.045 424.103 149.318" stroke="#53AEE0" stroke-width="0.6" stroke-linecap="round"/>
<path opacity="0.2" d="M-198.202 211.532C-159.012 176.532 3.53903 48.294 249.824 84.996C319.655 95.402 378.861 125.996 424.102 157.596" stroke="#53AEE0" stroke-width="0.6" stroke-linecap="round"/>
<path opacity="0.2" d="M-198.202 212.029C-158.69 177.269 6.06604 49.144 252.407 89.605C321.191 100.905 379.524 132.924 424.1 165.868" stroke="#53AEE0" stroke-width="0.6" stroke-linecap="round"/>
<path opacity="0.2" d="M-198.202 212.505C-158.363 177.891 8.67601 49.53 254.992 94.217C322.779 106.287 380.192 139.741 424.105 174.056" stroke="#53AEE0" stroke-width="0.6" stroke-linecap="round"/>
<path opacity="0.2" d="M-198.202 213.01C-158.053 178.683 11.186 50.653 257.575 98.827C324.245 111.863 380.868 147.027 424.104 182.627" stroke="#53AEE0" stroke-width="0.6" stroke-linecap="round"/>
</g>
</g>
<defs>
<filter id="filter0_d" x="5" y="14" width="354.008" height="227.953" filterUnits="userSpaceOnUse" color-interpolation-filters="sRGB">
<feFlood flood-opacity="0" result="BackgroundImageFix"/>
<feColorMatrix in="SourceAlpha" type="matrix" values="0 0 0 0 0 0 0 0 0 0 0 0 0 0 0 0 0 0 127 0"/>
<feOffset dy="6"/>
<feGaussianBlur stdDeviation="6"/>
<feColorMatrix type="matrix" values="0 0 0 0 0 0 0 0 0 0 0 0 0 0 0 0 0 0 0.349 0"/>
<feBlend mode="normal" in2="BackgroundImageFix" result="effect1_dropShadow"/>
<feBlend mode="normal" in="SourceGraphic" in2="effect1_dropShadow" result="shape"/>
</filter>
<radialGradient id="paint0_radial" cx="0" cy="0" r="1" gradientUnits="userSpaceOnUse" gradientTransform="translate(90.1217 148.021) scale(266.053 233.607)">
<stop stop-color="#5A7589"/>
<stop offset="0.323" stop-color="#436175"/>
<stop offset="0.549" stop-color="#315266"/>
<stop offset="1" stop-color="#124768"/>
</radialGradient>
<clipPath id="clip0">
<rect width="364" height="223.782" fill="white"/>
</clipPath>
</defs>
</svg>
