<svg width="44" height="44" viewBox="0 0 44 44" fill="none" xmlns="http://www.w3.org/2000/svg">
<g clip-path="url(#clip0)">
<path d="M5.02295 39.0229L5.02695 39.0289V39.027L5.02295 39.0229Z" fill="white"/>
<path d="M5.2051 36.5469C4.9731 36.5469 4.7481 36.5279 4.5201 36.5249V36.6309H4.6101C4.7641 36.6309 5.0721 36.7009 5.0721 37.1309L5.0641 39.0429L5.0541 39.0529L5.0371 39.0699L2.7871 36.5259C2.6371 36.5259 2.4901 36.5469 2.3361 36.5469C2.1521 36.5469 1.9621 36.5279 1.7781 36.5259L1.7771 36.6329H1.8211C2.0591 36.6329 2.3021 36.8139 2.3021 37.1109V39.2429C2.3021 39.6449 2.1901 39.9059 1.8261 39.9079L1.7781 39.9059V40.0139C1.9961 40.0139 2.2221 39.9929 2.4441 39.9929C2.6551 39.9929 2.8651 40.0119 3.0741 40.0139V39.9079H3.0111C2.6121 39.9049 2.5131 39.7319 2.5131 39.2919V37.1499L5.1391 40.0879H5.3061C5.2841 39.9339 5.2801 39.7679 5.2801 39.5999V37.2969C5.2801 36.6919 5.5341 36.6329 5.7531 36.6329H5.8051V36.5259C5.6061 36.5269 5.4061 36.5469 5.2051 36.5469Z" fill="white"/>
<path d="M5.82691 36.486C5.61791 36.482 5.41091 36.5 5.20491 36.5C4.96891 36.5 4.73491 36.48 4.49691 36.48H4.47491V36.654V36.675H4.60891C4.75491 36.679 5.02491 36.728 5.02691 37.13V38.99L2.80391 36.49C2.63291 36.482 2.48691 36.5 2.33591 36.5C2.14691 36.5 1.94891 36.481 1.75491 36.481H1.73291V36.654V36.675H1.82091C2.03791 36.677 2.25891 36.839 2.25891 37.11V39.241C2.25591 39.642 2.15991 39.858 1.82591 39.86H1.75491H1.73291V40.034V40.055H1.75491C1.98391 40.055 2.21691 40.035 2.44291 40.035C2.65891 40.035 2.87691 40.055 3.09491 40.055H3.11791V39.883V39.862H3.00891C2.62791 39.857 2.56191 39.732 2.55491 39.293V37.267L5.12191 40.127L5.33091 40.136H5.35591L5.35191 40.109C5.32891 39.957 5.32291 39.781 5.32291 39.603V37.302C5.32791 36.703 5.54191 36.687 5.75191 36.681H5.82691H5.84791V36.507V36.486H5.82691V36.486ZM5.82991 36.657H5.82791H5.75291C5.53991 36.657 5.30191 36.698 5.30191 37.302V39.603C5.30191 39.781 5.30591 39.957 5.33191 40.114H5.13891L2.53391 37.21V39.295C2.53391 39.736 2.61991 39.887 3.00991 39.887H3.09491V40.039C2.87791 40.039 2.66091 40.019 2.44391 40.019C2.21691 40.019 1.98391 40.039 1.75591 40.039V39.887H1.82591C2.17491 39.887 2.28291 39.65 2.28291 39.246V37.114C2.28291 36.831 2.04891 36.659 1.82191 36.659H1.75691V36.508C1.94891 36.508 2.14491 36.529 2.33891 36.529C2.48991 36.529 2.63691 36.508 2.78991 36.508L5.04091 39.042L5.04991 39.032V37.136C5.04991 36.72 4.76191 36.658 4.61091 36.658H4.49891V36.507C4.73691 36.507 4.96891 36.528 5.20691 36.528C5.41491 36.528 5.62191 36.507 5.82991 36.507V36.657Z" fill="white"/>
<path d="M12.397 39.2189C12.246 39.7879 11.952 39.8389 11.354 39.8349C11.035 39.8349 10.716 39.8349 10.716 39.4829V38.2829H11.344C11.696 38.2789 11.733 38.4919 11.758 38.7809L11.867 38.7569C11.857 38.5709 11.852 38.3839 11.852 38.1979C11.852 38.0089 11.857 37.8189 11.867 37.6279H11.758C11.73 37.8889 11.648 38.0759 11.339 38.0729H10.716V36.7029H11.44C11.966 36.6999 12.055 36.9699 12.077 37.2879L12.186 37.2609C12.176 37.1189 12.171 36.9329 12.171 36.7649C12.171 36.6789 12.172 36.5969 12.176 36.5259C11.833 36.5269 11.32 36.5469 10.905 36.5469C10.488 36.5469 9.97799 36.5279 9.66699 36.5259V36.6319H9.71599C9.89599 36.6319 10.112 36.6639 10.112 36.9439V39.5939C10.112 39.8729 9.89599 39.9039 9.71599 39.9059H9.66699V40.0099C9.96199 40.0099 10.546 39.9899 10.99 39.9899C11.437 39.9899 12.008 40.0099 12.334 40.0099C12.377 39.7559 12.435 39.4999 12.497 39.2429L12.397 39.2189Z" fill="white"/>
<path d="M9.36594 36.33L9.34294 36.322L9.33994 36.344C9.33194 36.477 9.22894 36.479 9.08794 36.482H6.47994H6.45494C6.32594 36.479 6.23194 36.477 6.19694 36.35L6.19494 36.334H6.05494H6.03394V36.355C6.03394 36.501 6.02494 36.642 6.00294 36.782C5.98794 36.928 5.96294 37.071 5.94094 37.211L5.93994 37.239H6.11594H6.13394L6.13694 37.221C6.21994 36.846 6.21294 36.783 6.58594 36.778H7.39394V39.458C7.38794 39.851 7.27494 39.854 6.99794 39.86H6.90094H6.87994V40.034V40.055H6.90094C7.09894 40.055 7.45394 40.034 7.75594 40.034C8.02694 40.034 8.38094 40.055 8.58094 40.055H8.60194V39.881V39.86H8.48294C8.24194 39.854 8.08994 39.829 8.08594 39.447V36.778H8.89294C9.21294 36.778 9.23294 37.053 9.24694 37.243L9.24794 37.272L9.42694 37.207L9.44094 37.201V37.186C9.44094 37.049 9.44094 36.914 9.44994 36.78C9.46494 36.643 9.48494 36.509 9.50594 36.372L9.50894 36.351L9.36594 36.33ZM9.42794 36.778C9.41894 36.916 9.41894 37.051 9.41894 37.186L9.26594 37.244C9.25494 37.057 9.23094 36.759 8.89194 36.759H8.06294V39.449C8.06294 39.841 8.23994 39.886 8.48094 39.886H8.57894V40.037C8.38194 40.037 8.02694 40.016 7.75494 40.016C7.45094 40.016 7.09694 40.037 6.89994 40.037V39.886H6.99494C7.27394 39.886 7.41494 39.862 7.41494 39.461V36.759H6.58494C6.20594 36.759 6.19094 36.851 6.11494 37.22H5.96294C5.98394 37.076 6.00894 36.937 6.02394 36.787C6.04394 36.645 6.05394 36.505 6.05394 36.357H6.17694C6.21794 36.508 6.34394 36.503 6.47994 36.503H9.08994C9.22694 36.503 9.35294 36.498 9.36394 36.347L9.48394 36.368C9.46294 36.506 9.44394 36.639 9.42794 36.778Z" fill="white"/>
<path d="M9.37999 36.373C9.35799 36.52 9.21599 36.528 9.08899 36.526H6.47999H6.45599C6.33699 36.526 6.20599 36.522 6.16099 36.381H6.07799C6.07599 36.519 6.06699 36.656 6.04699 36.79C6.03299 36.927 6.00999 37.06 5.98999 37.195H6.09899C6.16499 36.843 6.20999 36.728 6.58599 36.734H7.43799V39.459C7.43799 39.866 7.27399 39.907 6.99699 39.908H6.92099V40.012C7.12099 40.012 7.46299 39.993 7.75499 39.993C8.01899 39.993 8.35599 40.012 8.55699 40.012V39.908H8.48299C8.23899 39.907 8.03999 39.845 8.03999 39.449V36.735H8.89199C9.23299 36.736 9.27599 37.026 9.28799 37.214L9.39599 37.173C9.39599 37.043 9.39699 36.91 9.40599 36.777C9.42099 36.646 9.43999 36.517 9.45899 36.386L9.37999 36.373Z" fill="white"/>
<path d="M1.564 36.481C1.325 36.482 1.022 36.5 0.771 36.5C0.524 36.5 0.221 36.48 0.021 36.48H0V36.654V36.675H0.092C0.275 36.677 0.443 36.696 0.444 36.944V39.593C0.443 39.841 0.275 39.857 0.092 39.86H0.021H0V39.881V40.033V40.054H0.021C0.221 40.054 0.519 40.033 0.765 40.033C1.018 40.033 1.32 40.054 1.564 40.054H1.587V39.88V39.86H1.494C1.31 39.857 1.141 39.842 1.141 39.594V36.944C1.141 36.696 1.31 36.678 1.494 36.676H1.564H1.587V36.504V36.481H1.564ZM1.563 36.657H1.493C1.311 36.657 1.118 36.68 1.118 36.946V39.594C1.118 39.86 1.311 39.883 1.493 39.883H1.563V40.035C1.32 40.035 1.017 40.015 0.764 40.015C0.516 40.015 0.218 40.035 0.02 40.035V39.883H0.091C0.273 39.883 0.465 39.861 0.465 39.594V36.946C0.465 36.68 0.273 36.657 0.091 36.657H0.02V36.507C0.218 36.507 0.521 36.527 0.77 36.527C1.022 36.527 1.325 36.507 1.563 36.507V36.657V36.657Z" fill="white"/>
<path d="M24.3309 3.82495H19.2269C13.2259 3.82195 8.28491 8.29695 8.28491 14.768C8.28491 20.688 13.2249 25.553 19.2269 25.523H24.3309C30.2619 25.551 35.6749 20.686 35.6749 14.768C35.6749 8.29495 30.2609 3.82195 24.3309 3.82495ZM19.2509 24.589C13.7669 24.586 9.32191 20.14 9.32091 14.655C9.32191 9.16795 13.7669 4.72195 19.2509 4.72095C24.7359 4.72195 29.1819 9.16895 29.1819 14.655C29.1819 20.14 24.7369 24.586 19.2509 24.589Z" fill="white"/>
<path d="M34.1409 34.2371C33.8799 34.2371 33.6749 34.2371 33.6749 33.9271V27.5051C33.6749 27.4291 33.6589 27.3721 33.5999 27.3721C33.5709 27.3721 33.4969 27.4211 33.3949 27.4761C33.1999 27.5891 32.8109 27.7571 32.4379 27.8751V28.0231C32.7919 28.1261 32.9319 28.1441 32.9319 28.7491V33.9271C32.9319 34.2361 32.7459 34.2361 32.4839 34.2361H32.3059V34.4761C32.6519 34.4681 32.9859 34.4571 33.3199 34.4571C33.6559 34.4571 33.9829 34.4761 34.2959 34.4761V34.2371H34.1409Z" fill="white"/>
<path d="M21.5029 8.77808V20.5311C23.8649 19.6221 25.5419 17.3381 25.5459 14.6541C25.5429 11.9721 23.8649 9.68408 21.5029 8.77808Z" fill="white"/>
<path d="M41.509 30.2281C40.999 30.2281 40.497 30.5821 40.126 30.8971V27.5031C40.126 27.4271 40.105 27.3711 40.05 27.3711C40.022 27.3711 39.947 27.4171 39.846 27.4741C39.651 27.5871 39.261 27.7551 38.887 27.8741V28.0231C39.242 28.1291 39.382 28.1451 39.382 28.7501V32.7481C39.382 33.3151 39.335 33.8531 39.251 34.4041L39.445 34.5061L39.724 34.2911C39.964 34.3951 40.328 34.6181 41.015 34.6181C42.347 34.6181 43.238 33.3991 43.238 32.1811C43.238 31.1671 42.589 30.2281 41.509 30.2281ZM41.083 34.3771C40.46 34.3771 40.126 33.7811 40.126 33.4291V31.1691C40.376 30.9531 40.665 30.7311 41.009 30.7311C41.735 30.7311 42.495 31.5691 42.495 32.5721C42.495 33.3991 42.079 34.3771 41.083 34.3771Z" fill="white"/>
<path d="M38.5359 34.1461C38.3799 34.1461 38.2759 34.1381 38.2759 33.9701V30.5371C38.2759 30.4321 38.2759 30.3701 38.2019 30.3701C38.1099 30.3701 37.5889 30.4431 36.7529 30.4991V30.6671C37.0869 30.7611 37.5339 30.8621 37.5339 31.0501V33.5521C37.1429 33.8731 36.7229 34.1151 36.4089 34.1151C35.5999 34.1151 35.5999 33.3141 35.5989 33.0361V30.6411C35.5989 30.4351 35.5989 30.3721 35.4949 30.3721C35.3739 30.3721 34.6299 30.4271 34.2959 30.4351V30.6131C34.8169 30.6571 34.8539 30.8901 34.8539 31.1341V33.5131C34.8539 34.2911 35.3739 34.6181 35.8759 34.6181C36.5379 34.6181 36.9639 34.2911 37.5219 33.8391V34.5931L37.5689 34.6201C37.7469 34.5641 38.5089 34.3681 38.9109 34.3311V34.1381C38.7879 34.1381 38.6489 34.1461 38.5359 34.1461Z" fill="white"/>
<path d="M21.42 31.139C21.42 30.742 21.773 30.527 22.144 30.527C22.742 30.527 23.066 30.862 23.16 31.447H23.375L23.311 30.5C22.947 30.313 22.547 30.229 22.25 30.229C21.229 30.229 20.81 30.898 20.81 31.419C20.81 32.914 22.834 32.558 22.834 33.658C22.834 33.985 22.628 34.32 22.079 34.323C21.399 34.323 21.029 33.8 20.907 33.187L20.74 33.235L20.843 34.304C21.168 34.488 21.604 34.619 21.977 34.619C23.083 34.619 23.577 33.967 23.577 33.352C23.577 31.893 21.42 32.229 21.42 31.139Z" fill="white"/>
<path d="M2.73601 27.9871C2.04801 27.9871 1.51801 28.0081 1.12701 28.0081C0.764006 28.0081 0.394006 28.0081 0.0310059 27.9871V28.2281C0.449006 28.2381 0.886006 28.1811 0.886006 29.0171H0.885006V33.5291C0.859006 34.1611 0.588006 34.1771 0.0310059 34.2361V34.4741C0.449006 34.4661 0.859006 34.4561 1.27701 34.4561C1.71301 34.4601 2.15101 34.4741 2.62501 34.4741C5.91601 34.4741 6.45401 32.1621 6.45401 31.2411C6.45401 29.5941 5.14401 27.9871 2.73601 27.9871ZM2.76401 34.1781C2.30901 34.1781 1.79701 34.0941 1.79701 33.3791L1.79601 28.3231C1.96401 28.3101 2.14001 28.2861 2.52201 28.2861C4.31601 28.2861 5.43201 29.5411 5.43201 31.2791C5.43201 32.6651 4.77201 34.1781 2.76401 34.1781Z" fill="white"/>
<path d="M1.49297 36.6329H1.54197V36.5259C1.30897 36.5259 1.01597 36.5469 0.770969 36.5469C0.529969 36.5469 0.238969 36.5279 0.0429688 36.5259V36.6329H0.0919687C0.271969 36.6329 0.487969 36.6649 0.487969 36.9449V39.5929C0.487969 39.8749 0.271969 39.9049 0.0919687 39.9049H0.0429688V40.0119C0.238969 40.0119 0.524969 39.9909 0.763969 39.9909C1.01097 39.9909 1.30297 40.0099 1.54197 40.0119V39.9049H1.49297C1.31197 39.9049 1.09597 39.8739 1.09597 39.5929V36.9449C1.09597 36.6639 1.31197 36.6329 1.49297 36.6329Z" fill="white"/>
<path d="M8.61203 34.2399C8.35203 34.2399 8.14703 34.2399 8.14703 33.9309V30.3629C8.14703 30.2889 8.12803 30.2319 8.08203 30.2319C8.03503 30.2319 7.97903 30.2409 7.91303 30.2779C7.87703 30.3059 7.35703 30.4799 6.92003 30.6129V30.7609C7.26303 30.9439 7.40403 31.0009 7.40403 31.4099V33.9299C7.40403 34.2389 7.21603 34.2389 6.95703 34.2389H6.78003V34.4789C7.12403 34.4689 7.45903 34.4599 7.79303 34.4599C8.12803 34.4599 8.45303 34.4739 8.77003 34.4799V34.2399H8.61203V34.2399Z" fill="white"/>
<path d="M19.973 30.23C19.407 30.23 19.016 30.826 18.784 31.187H18.764V30.349C18.764 30.257 18.736 30.23 18.681 30.23C18.597 30.23 18.225 30.47 17.546 30.759V30.899C17.686 30.972 18.029 31.03 18.029 31.318V33.927C18.029 34.238 17.843 34.238 17.584 34.238H17.333V34.478C17.668 34.47 18.057 34.459 18.439 34.459C18.839 34.459 19.228 34.47 19.739 34.478V34.239H19.219C18.959 34.239 18.773 34.239 18.773 33.929V31.744C18.773 31.184 19.293 30.971 19.453 30.974C19.778 30.974 19.778 31.198 20.067 31.198C20.327 31.198 20.504 30.972 20.504 30.722C20.504 30.386 20.205 30.23 19.973 30.23Z" fill="white"/>
<path d="M7.77407 27.886C7.54207 27.886 7.32007 28.101 7.32007 28.333C7.32007 28.575 7.53307 28.799 7.77407 28.8C8.02607 28.8 8.23107 28.583 8.23107 28.333C8.23107 28.081 8.01607 27.886 7.77407 27.886Z" fill="white"/>
<path d="M17.032 33.4351C16.69 33.7771 16.289 34.0561 15.777 34.0561C15.035 34.0561 14.466 33.3321 14.412 32.4491C14.391 32.1351 14.391 31.9941 14.412 31.9101L17.024 31.9121L17.108 31.8541C17.116 31.7991 17.116 31.7441 17.116 31.6861C17.108 30.7021 16.298 30.2271 15.545 30.2271C14.895 30.2271 13.667 30.7661 13.667 32.5881C13.667 33.1821 13.965 34.6151 15.443 34.6151C16.206 34.6151 16.734 34.1311 17.162 33.5641L17.032 33.4351ZM15.508 30.5271C16.029 30.5271 16.318 30.9081 16.318 31.3811C16.318 31.4911 16.291 31.6131 16.058 31.6131H14.44C14.552 30.9431 14.942 30.5271 15.508 30.5271Z" fill="white"/>
<path d="M12.958 14.6541C12.962 17.3351 14.635 19.6201 16.997 20.5281V8.77808C14.636 9.68708 12.963 11.9731 12.958 14.6541Z" fill="white"/>
<path d="M36.322 36.5469C36.091 36.5469 35.867 36.5279 35.642 36.5269V36.6319H35.732C35.886 36.6339 36.193 36.7029 36.193 37.1319L36.189 39.0439L36.177 39.0539L36.159 39.0719L33.909 36.5269C33.759 36.5269 33.61 36.5479 33.458 36.5479C33.272 36.5479 33.083 36.5289 32.897 36.5269V36.6319H32.942C33.177 36.6329 33.423 36.8139 33.423 37.1109V39.2429C33.423 39.6449 33.308 39.9059 32.945 39.9079L32.894 39.9069V40.0119C33.113 40.0119 33.337 39.9919 33.562 39.9919C33.773 39.9919 33.982 40.0119 34.191 40.0119V39.9079H34.128C33.731 39.9059 33.63 39.7319 33.63 39.2919V37.1499L36.256 40.0879H36.422C36.402 39.9339 36.398 39.7679 36.398 39.5999V37.2969C36.398 36.6889 36.652 36.6329 36.869 36.6309H36.924V36.5259C36.724 36.5269 36.523 36.5469 36.322 36.5469Z" fill="white"/>
<path d="M12.388 39.169H12.366V39.172L12.361 39.192C12.209 39.76 11.964 39.79 11.356 39.794C11.026 39.792 10.76 39.794 10.76 39.486V38.327H11.345C11.681 38.331 11.683 38.5 11.718 38.807L11.72 38.831L11.895 38.797L11.914 38.791L11.913 38.773C11.904 38.58 11.897 38.388 11.897 38.196C11.897 37.999 11.904 37.8 11.913 37.605L11.914 37.584H11.739H11.72L11.718 37.604C11.684 37.875 11.632 38.027 11.34 38.03H10.76V36.749H11.441C11.963 36.755 12.006 36.991 12.036 37.32L12.038 37.344L12.216 37.299L12.232 37.293V37.273C12.221 37.128 12.216 36.939 12.216 36.763C12.216 36.666 12.218 36.576 12.221 36.5L12.222 36.479H12.199C11.855 36.479 11.331 36.498 10.905 36.498C10.482 36.498 9.955 36.479 9.647 36.479H9.625V36.652V36.673H9.718C9.902 36.677 10.068 36.694 10.069 36.943V39.591C10.068 39.839 9.902 39.856 9.718 39.859H9.647H9.625V39.88V40.031V40.052H9.647C9.935 40.052 10.537 40.032 10.991 40.032C11.446 40.032 12.028 40.052 12.352 40.052H12.37L12.374 40.034C12.42 39.766 12.48 39.499 12.545 39.231L12.55 39.21L12.388 39.169ZM12.352 40.036C12.027 40.036 11.446 40.015 10.992 40.015C10.535 40.015 9.934 40.036 9.646 40.036V39.886H9.717C9.9 39.886 10.091 39.862 10.091 39.597V36.947C10.091 36.681 9.9 36.658 9.717 36.658H9.646V36.506C9.954 36.506 10.481 36.527 10.906 36.527C11.331 36.527 11.855 36.506 12.199 36.506C12.191 36.725 12.195 37.059 12.212 37.28L12.058 37.32C12.033 36.992 11.973 36.728 11.441 36.728H10.739V38.054H11.342C11.643 38.054 11.71 37.882 11.739 37.607H11.891C11.881 37.806 11.876 38.003 11.876 38.201C11.876 38.392 11.881 38.585 11.891 38.778L11.739 38.808C11.709 38.504 11.695 38.308 11.345 38.308H10.739V39.484C10.739 39.814 11.031 39.814 11.356 39.814C11.963 39.814 12.23 39.773 12.382 39.198L12.524 39.232C12.458 39.5 12.397 39.766 12.352 40.036Z" fill="white"/>
<path d="M36.9471 36.4849C36.7361 36.4849 36.5291 36.5049 36.3221 36.5049C36.0881 36.5049 35.8551 36.4849 35.6151 36.4849H35.5921V36.6579V36.6789H35.7271C35.8751 36.6829 36.1451 36.7329 36.1471 37.1339V38.9939L33.9221 36.4919C33.7501 36.4839 33.6061 36.5029 33.4531 36.5029C33.2641 36.5029 33.0661 36.4839 32.8731 36.4839H32.8501V36.6569V36.6779H32.9381C33.1551 36.6779 33.3761 36.8419 33.3761 37.1109V39.2429C33.3721 39.6449 33.2751 39.8599 32.9411 39.8619H32.8721H32.8501V40.0359V40.0569H32.8721C33.1011 40.0569 33.3331 40.0359 33.5601 40.0359C33.7751 40.0359 33.9931 40.0569 34.2101 40.0569H34.2311V39.8829V39.8619H34.1241C33.7431 39.8559 33.6771 39.7329 33.6711 39.2929V37.2669L36.2351 40.1279L36.4441 40.1339H36.4691L36.4641 40.1119C36.4401 39.9569 36.4361 39.7799 36.4361 39.6029V37.2999C36.4401 36.7039 36.6571 36.6849 36.8641 36.6789H36.9401H36.9681V36.6779V36.5059V36.4849H36.9471ZM36.9531 36.6579H36.8761C36.6581 36.6569 36.4191 36.6969 36.4191 37.2989V39.6019C36.4191 39.7789 36.4231 39.9549 36.4501 40.1119H36.2571L33.6531 37.2079V39.2929C33.6531 39.7339 33.7391 39.8859 34.1301 39.8859H34.2161V40.0369C33.9991 40.0369 33.7801 40.0159 33.5661 40.0159C33.3371 40.0159 33.1051 40.0369 32.8781 40.0369V39.8859H32.9471C33.2981 39.8859 33.4021 39.6489 33.4021 39.2439V37.1119C33.4021 36.8289 33.1731 36.6569 32.9431 36.6569H32.8781V36.5049C33.0681 36.5049 33.2681 36.5259 33.4581 36.5259C33.6111 36.5259 33.7571 36.5049 33.9081 36.5049L36.1601 39.0399L36.1671 39.0329L36.1711 39.0299V37.1339C36.1711 36.7179 35.8841 36.6579 35.7311 36.6579H35.6241V36.5069C35.8601 36.5069 36.0931 36.5279 36.3311 36.5279C36.5381 36.5279 36.7451 36.5069 36.9531 36.5069V36.6579Z" fill="white"/>
<path d="M30.7981 36.6509C29.9131 36.6509 29.6521 37.4419 29.6521 38.1179C29.6521 39.0229 30.0661 39.8889 30.8851 39.8889C31.8671 39.8889 32.0371 39.0229 32.0371 38.2849C32.0391 37.5469 31.6411 36.6509 30.7981 36.6509ZM30.8861 39.8669C30.0851 39.8659 29.6751 39.0179 29.6731 38.1169C29.6771 37.4429 29.9321 36.6749 30.7981 36.6729C31.6221 36.6749 32.0181 37.5519 32.0181 38.2839C32.0161 39.0229 31.8501 39.8669 30.8861 39.8669Z" fill="white"/>
<path d="M30.8111 36.45C29.7701 36.45 28.9641 37.257 28.9641 38.298C28.9661 39.372 29.7761 40.091 30.8371 40.091C31.9021 40.091 32.7251 39.3249 32.7291 38.1749C32.7271 37.1109 31.8781 36.452 30.8111 36.45ZM30.8861 39.9109C30.0461 39.9099 29.6321 39.029 29.6301 38.118C29.6321 37.436 29.8991 36.632 30.7981 36.632C31.6591 36.632 32.0591 37.5429 32.0611 38.2859C32.0611 39.0229 31.8871 39.9109 30.8861 39.9109Z" fill="white"/>
<path d="M38.4961 37.071H38.4881L38.4861 37.073L38.0171 38.505H38.9631L38.4961 37.071ZM38.4911 37.125L38.9291 38.479H38.0461L38.4911 37.125Z" fill="white"/>
<path d="M30.8109 36.407C29.7489 36.408 28.9229 37.232 28.9209 38.298C28.9229 39.398 29.7529 40.132 30.8349 40.136C31.9209 40.132 32.7699 39.351 32.7699 38.175C32.7679 37.083 31.8959 36.408 30.8109 36.407ZM30.8349 40.112C29.7619 40.112 28.9429 39.383 28.9429 38.297C28.9429 37.243 29.7549 36.43 30.8079 36.43C31.8859 36.43 32.7459 37.098 32.7459 38.174C32.7479 39.34 31.9139 40.112 30.8349 40.112Z" fill="white"/>
<path d="M43.3409 39.1561L43.3259 39.1541L43.3199 39.1731C43.2929 39.2811 43.2479 39.4231 43.1699 39.5291C43.0819 39.6501 42.9039 39.7681 42.6969 39.7921C42.5679 39.8081 42.4389 39.8131 42.3139 39.8131C42.2149 39.8131 42.1249 39.8091 42.0349 39.8031C41.8769 39.7801 41.7539 39.7311 41.7519 39.5401V36.9321C41.7559 36.6761 41.8789 36.6861 42.0739 36.6801H42.2009H42.2219V36.5061V36.4851H42.2009C41.9409 36.4851 41.6869 36.5051 41.4309 36.5051C41.1619 36.5051 40.8979 36.4851 40.6289 36.4851H40.6079V36.6581V36.6791H40.6999C40.8859 36.6811 41.0569 36.7001 41.0589 36.9461V39.5491C41.0569 39.8481 40.8819 39.8611 40.6999 39.8631H40.6299H40.6089V40.0371V40.0581H40.6299C41.0749 40.0581 41.5229 40.0371 41.9659 40.0371C42.4109 40.0371 42.8569 40.0581 43.2999 40.0581H43.3179L43.3219 40.0401C43.3839 39.7521 43.4539 39.4721 43.5109 39.1811L43.5149 39.1561H43.3409V39.1561ZM43.2999 40.0361C42.8579 40.0361 42.4109 40.0151 41.9679 40.0151C41.5219 40.0151 41.0769 40.0361 40.6319 40.0361V39.8861H40.6999C40.8839 39.8861 41.0829 39.8621 41.0829 39.5451V36.9451C41.0829 36.6781 40.8839 36.6561 40.6999 36.6561H40.6319V36.5051C40.9009 36.5051 41.1629 36.5251 41.4319 36.5251C41.6899 36.5251 41.9419 36.5051 42.2019 36.5051V36.6561H42.0729C41.8839 36.6561 41.7309 36.6611 41.7309 36.9281V39.5371C41.7309 39.7401 41.8719 39.8011 42.0339 39.8211C42.2409 39.8361 42.4699 39.8361 42.7019 39.8101C42.9149 39.7851 43.0969 39.6641 43.1859 39.5381C43.2659 39.4281 43.3109 39.2841 43.3409 39.1741H43.4869C43.4339 39.4651 43.3629 39.7471 43.2999 40.0361Z" fill="white"/>
<path d="M40.4251 39.908C40.2531 39.908 40.1321 39.84 40.0701 39.691C40.0061 39.537 39.9431 39.348 39.8831 39.17L38.9511 36.524C38.9341 36.485 38.9221 36.437 38.9081 36.404C38.9031 36.396 38.9051 36.396 38.8991 36.396H38.8911C38.8791 36.396 38.8731 36.401 38.8621 36.404C38.7641 36.466 38.5611 36.568 38.4121 36.607C38.3811 36.798 38.2891 37.05 38.2241 37.238L37.4121 39.56C37.3361 39.78 37.1601 39.906 36.9531 39.906H36.9441V40.011C37.1191 40 37.2931 39.99 37.4691 39.99C37.6641 39.99 37.8651 40.001 38.0591 40.011V39.906H38.0241C37.8601 39.903 37.6291 39.885 37.6251 39.705C37.6251 39.605 37.6881 39.476 37.7351 39.305L37.9011 38.762H39.0821L39.2871 39.366C39.3421 39.529 39.3901 39.663 39.3901 39.737C39.3811 39.891 39.1681 39.904 39.0541 39.908H39.0201V40.012H39.0221C39.2721 40.002 39.5181 39.991 39.7571 39.991C39.9911 39.991 40.2121 40.002 40.4341 40.012V39.908H40.4251V39.908ZM37.9861 38.525L38.4701 37.049H38.4861H38.4981H38.5161L38.9951 38.525H37.9861Z" fill="white"/>
<path d="M43.43 36.3621C43.124 36.3621 42.897 36.5941 42.897 36.8951C42.897 37.1941 43.126 37.4241 43.43 37.4241C43.733 37.4241 43.96 37.1941 43.96 36.8951C43.96 36.5961 43.73 36.3621 43.43 36.3621ZM43.43 37.3271C43.19 37.3271 43.005 37.1231 43.005 36.8931C43.005 36.6641 43.19 36.4591 43.43 36.4591C43.669 36.4591 43.85 36.6631 43.85 36.8931C43.85 37.1231 43.666 37.3271 43.43 37.3271Z" fill="white"/>
<path d="M43.5831 37.0309L43.4921 36.9109C43.5641 36.8899 43.6171 36.8299 43.6171 36.7499C43.6171 36.6529 43.5331 36.6089 43.4371 36.6089H43.1661V36.6349C43.2341 36.6309 43.2421 36.6519 43.2421 36.7049V37.0999C43.2421 37.1409 43.2281 37.1389 43.1641 37.1499V37.1739H43.4221V37.1499C43.3561 37.1389 43.3421 37.1409 43.3421 37.1079V36.9279H43.4031C43.5021 37.0709 43.5471 37.1739 43.5941 37.1739H43.6981V37.1569C43.6691 37.1379 43.6221 37.0879 43.5831 37.0309ZM43.4061 36.8949H43.3421V36.6429H43.4031C43.4611 36.6429 43.5081 36.6739 43.5081 36.7599C43.5071 36.8459 43.4751 36.8949 43.4061 36.8949Z" fill="white"/>
<path d="M40.4241 39.857C40.2641 39.859 40.1691 39.8031 40.1111 39.6721C40.0471 39.5221 39.9861 39.336 39.9231 39.156L38.9931 36.51C38.9751 36.467 38.9621 36.4221 38.9461 36.3811C38.9301 36.3561 38.9051 36.3521 38.8911 36.3521C38.8701 36.3521 38.8541 36.3601 38.8441 36.3651C38.7431 36.4271 38.5401 36.528 38.3821 36.584C38.3371 36.784 38.2451 37.035 38.1841 37.224L37.3721 39.5461C37.2981 39.7501 37.1411 39.8581 36.9521 39.8581H36.9231H36.9021V40.0321V40.0531H36.9231C37.1081 40.0431 37.2881 40.0321 37.4691 40.0321C37.6691 40.0321 37.8781 40.0431 38.0791 40.0531H38.1001V39.8801V39.8601H38.0241C37.8561 39.8601 37.6701 39.8301 37.6701 39.7051C37.6681 39.6241 37.7281 39.4911 37.7781 39.3171L37.9341 38.805H39.0511L39.2421 39.377C39.2991 39.538 39.3461 39.676 39.3441 39.732C39.3441 39.83 39.1681 39.857 39.0511 39.857H39.0001H38.9771V40.031V40.0541L39.0001 40.0531C39.2561 40.0441 39.5101 40.0321 39.7581 40.0321C40.0001 40.0321 40.2271 40.0441 40.4531 40.0531L40.4761 40.055V39.8791V39.8581H40.4241V39.857ZM40.4571 40.036C40.2281 40.026 40.0001 40.015 39.7581 40.015C39.5101 40.015 39.2581 40.026 39.0001 40.036V39.8861H39.0551C39.1701 39.8861 39.3691 39.865 39.3691 39.739C39.3691 39.674 39.3221 39.539 39.2651 39.376L39.0681 38.7891H37.9221L37.7581 39.3161C37.7091 39.4861 37.6491 39.62 37.6491 39.71C37.6491 39.863 37.8621 39.8871 38.0281 39.8871H38.0861V40.0391C37.8831 40.0291 37.6761 40.0191 37.4741 40.0191C37.2911 40.0191 37.1111 40.0281 36.9281 40.0391V39.8871H36.9571C37.1551 39.8871 37.3211 39.77 37.3971 39.557L38.2071 37.238C38.2721 37.05 38.3641 36.8001 38.3941 36.6091C38.5561 36.5531 38.7581 36.454 38.8551 36.391C38.8731 36.387 38.8791 36.3811 38.8961 36.3811C38.9121 36.3811 38.9201 36.381 38.9311 36.397C38.9471 36.438 38.9631 36.484 38.9781 36.522L39.9081 39.168C39.9691 39.346 40.0291 39.5311 40.0971 39.6861C40.1581 39.8291 40.2621 39.8871 40.4281 39.8871H40.4591L40.4571 40.036Z" fill="white"/>
<path d="M43.3591 39.1981C43.3281 39.3071 43.2831 39.4441 43.2031 39.5551C43.1091 39.6821 42.9211 39.8071 42.7051 39.8361C42.5691 39.8501 42.4381 39.8571 42.3151 39.8571C42.2171 39.8571 42.1231 39.8501 42.0301 39.8441C41.8671 39.8261 41.7071 39.7561 41.7071 39.5391V36.9301C41.7071 36.6501 41.8851 36.6331 42.0731 36.6331H42.1781V36.5271C41.9281 36.5281 41.6821 36.5481 41.4321 36.5481C41.1721 36.5481 40.9141 36.5291 40.6531 36.5271V36.6331H40.7031C40.8811 36.6331 41.1041 36.6671 41.1041 36.9451V39.5481C41.1041 39.8731 40.8851 39.9071 40.7031 39.9071H40.6531V40.0141C41.0921 40.0141 41.5281 39.9931 41.9671 39.9931C42.4081 39.9931 42.8451 40.0141 43.2831 40.0141C43.3421 39.7401 43.4101 39.4711 43.4631 39.1981H43.3591Z" fill="white"/>
<path d="M28.722 39.86C28.537 39.857 28.371 39.842 28.368 39.594V36.944C28.37 36.697 28.536 36.678 28.722 36.676H28.791H28.812V36.5V36.48H28.791C28.555 36.483 28.25 36.501 27.998 36.501C27.752 36.501 27.447 36.481 27.25 36.481H27.229V36.655V36.676H27.323C27.506 36.678 27.674 36.697 27.676 36.945V39.594C27.674 39.842 27.506 39.859 27.323 39.861H27.25H27.229V39.882V40.034V40.055H27.25C27.447 40.055 27.748 40.034 27.996 40.034C28.248 40.034 28.549 40.055 28.793 40.055H28.814V39.881V39.86H28.722ZM28.792 40.034C28.55 40.034 28.247 40.014 27.995 40.014C27.747 40.014 27.447 40.034 27.249 40.034V39.882H27.32C27.503 39.882 27.693 39.86 27.693 39.593V36.945C27.693 36.679 27.503 36.656 27.32 36.656H27.25V36.506C27.447 36.506 27.75 36.526 27.998 36.526C28.254 36.526 28.559 36.506 28.793 36.506L28.792 36.656H28.723C28.54 36.656 28.348 36.679 28.348 36.945V39.593C28.348 39.859 28.54 39.882 28.723 39.882H28.792V40.034V40.034Z" fill="white"/>
<path d="M20.4331 36.4839C20.2251 36.4839 20.0181 36.5049 19.8111 36.5049C19.5751 36.5049 19.3421 36.4839 19.1031 36.4839H19.0811V36.6579V36.6789H19.2141C19.3611 36.6809 19.6311 36.7329 19.6321 37.1339V38.9939L17.4081 36.4899C17.2401 36.4829 17.0921 36.5029 16.9441 36.5029C16.7531 36.5029 16.5561 36.4829 16.3631 36.4829H16.3401V36.6569V36.6779H16.4271C16.6451 36.6779 16.8651 36.8419 16.8651 37.1109V39.2409C16.8621 39.6449 16.7661 39.8609 16.4331 39.8619H16.3631H16.3401V40.0359V40.0569H16.3631C16.5901 40.0569 16.8241 40.0359 17.0501 40.0359C17.2671 40.0359 17.4831 40.0569 17.7021 40.0569H17.7241V39.8829V39.8619H17.6181C17.2361 39.8559 17.1681 39.7329 17.1631 39.2929V37.2669L19.7301 40.1279L19.9381 40.1359H19.9631L19.9601 40.1129C19.9331 39.9569 19.9291 39.7809 19.9291 39.6029V37.3019C19.9341 36.7039 20.1491 36.6869 20.3581 36.6809H20.4331H20.4551V36.6779V36.5059V36.4839H20.4331V36.4839ZM20.4351 36.6559H20.3591C20.1461 36.6569 19.9081 36.6969 19.9081 37.2989V39.6019C19.9081 39.7789 19.9121 39.9549 19.9371 40.1119H19.7441L17.1401 37.2069V39.2919C17.1401 39.7329 17.2261 39.8859 17.6171 39.8859H17.7011V40.0359C17.4851 40.0359 17.2671 40.0149 17.0501 40.0149C16.8211 40.0149 16.5891 40.0359 16.3621 40.0359V39.8859H16.4321C16.7821 39.8859 16.8871 39.6479 16.8871 39.2429V37.1109C16.8871 36.8279 16.6551 36.6559 16.4271 36.6559H16.3631V36.5049C16.5531 36.5049 16.7531 36.5249 16.9441 36.5249C17.0941 36.5249 17.2431 36.5049 17.3941 36.5049L19.6451 39.0389H19.6461L19.6501 39.0319L19.6531 39.0289V37.1329C19.6531 36.7169 19.3661 36.6559 19.2141 36.6559H19.1041V36.5059C19.3421 36.5059 19.5741 36.5259 19.8121 36.5259C20.0201 36.5259 20.2261 36.5059 20.4351 36.5059V36.6559Z" fill="white"/>
<path d="M19.8111 36.5469C19.5791 36.5469 19.3551 36.5279 19.1251 36.5259V36.6309H19.2141C19.3711 36.6329 19.6771 36.7009 19.6771 37.1309L19.6701 39.0429L19.6611 39.0529L19.6451 39.0709L17.3941 36.5259C17.2431 36.5259 17.0971 36.5469 16.9441 36.5469C16.7571 36.5469 16.5681 36.5279 16.3831 36.5259V36.6309H16.4271C16.6661 36.6319 16.9091 36.8129 16.9091 37.1099V39.2399C16.9091 39.6439 16.7941 39.9049 16.4321 39.9069L16.3821 39.9059V40.0109C16.6011 40.0109 16.8261 39.9899 17.0491 39.9899C17.2621 39.9899 17.4711 40.0109 17.6801 40.0109V39.9059H17.6181C17.2181 39.9039 17.1201 39.7299 17.1181 39.2899V37.1499L19.7451 40.0879H19.9121C19.8891 39.9339 19.8861 39.7679 19.8861 39.5999V37.2969C19.8861 36.6919 20.1401 36.6329 20.3581 36.6309H20.4111V36.5259C20.2111 36.5269 20.0121 36.5469 19.8111 36.5469Z" fill="white"/>
<path d="M15.7019 39.5941L14.8209 38.2761L14.8459 38.2661C15.2409 38.1121 15.5349 37.8401 15.5349 37.3951C15.5349 36.6941 14.9889 36.5301 14.3529 36.5271C14.0859 36.5271 13.8429 36.5481 13.5389 36.5481C13.2419 36.5481 12.9409 36.5291 12.7759 36.5271V36.6351H12.8449C13.0029 36.6351 13.2259 36.6601 13.2259 37.0401V39.6101C13.2259 39.8131 13.0369 39.9071 12.8449 39.9071H12.7759V40.0111C13.0189 40.0111 13.2499 39.9901 13.4869 39.9901C13.7709 39.9901 14.0559 40.0111 14.3349 40.0111V39.9071H14.2669C14.0369 39.9071 13.8289 39.8791 13.8289 39.4761V38.3721H13.8519H14.1979L14.2029 38.3841C14.5339 38.9661 14.8659 39.5131 15.2389 40.0131C15.3929 40.0131 15.5539 39.9921 15.7119 39.9921C15.8739 39.9921 16.0289 40.0091 16.1869 40.0131V39.9041C15.9509 39.8731 15.8399 39.8031 15.7019 39.5941ZM14.1009 38.2361H13.8529H13.8299V36.6861L13.8509 36.6841C13.9189 36.6781 13.9879 36.6641 14.1409 36.6641C14.6019 36.6641 14.9019 36.9651 14.9019 37.4241C14.8999 38.0311 14.6099 38.2361 14.1009 38.2361Z" fill="white"/>
<path d="M16.2119 39.8569C15.9669 39.8299 15.8789 39.7789 15.7379 39.5679L14.8879 38.2969C15.2779 38.1369 15.5799 37.8519 15.5799 37.3949C15.5789 36.6609 14.9919 36.4859 14.3529 36.4839C14.0829 36.4839 13.8409 36.5049 13.5389 36.5049C13.2309 36.5049 12.9179 36.4839 12.7549 36.4839H12.7329V36.6579V36.6799H12.8449C13.0029 36.6839 13.1779 36.6819 13.1819 37.0399V39.6099C13.1809 39.7809 13.0289 39.8599 12.8449 39.8599H12.7549H12.7329V40.0339V40.0549H12.7549C13.0079 40.0549 13.2449 40.0339 13.4869 40.0339C13.7739 40.0339 14.0689 40.0549 14.3569 40.0549H14.3799V39.8809V39.8599H14.2669C14.0329 39.8529 13.8799 39.8579 13.8739 39.4759V38.4149H14.1729C14.4999 38.9929 14.8319 39.5359 15.2199 40.0459C15.3959 40.0539 15.5579 40.0329 15.7119 40.0329C15.8779 40.0329 16.0399 40.0539 16.2089 40.0539H16.2299V39.8799V39.8599L16.2119 39.8569ZM16.2099 40.0359C16.0439 40.0359 15.8809 40.0149 15.7149 40.0149C15.5579 40.0149 15.3949 40.0359 15.2379 40.0359C14.8489 39.5229 14.5139 38.9769 14.1859 38.3929H13.8529V39.4769C13.8529 39.8689 14.0339 39.8829 14.2679 39.8829H14.3589V40.0339C14.0689 40.0339 13.7769 40.0129 13.4889 40.0129C13.2459 40.0129 13.0079 40.0339 12.7559 40.0339V39.8829H12.8459C13.0349 39.8829 13.2059 39.7969 13.2059 39.6109V37.0409C13.2059 36.6749 13.0029 36.6569 12.8459 36.6569H12.7559V36.5069C12.9179 36.5069 13.2309 36.5269 13.5399 36.5269C13.8429 36.5269 14.0859 36.5069 14.3539 36.5069C14.9909 36.5069 15.5589 36.6789 15.5589 37.3979C15.5589 37.8509 15.2559 38.1299 14.8549 38.2879L15.7189 39.5819C15.8609 39.7969 15.9619 39.8569 16.2099 39.8869V40.0359Z" fill="white"/>
<path d="M28.7219 36.6329H28.7689V36.5259C28.5369 36.5269 28.2439 36.5469 27.9979 36.5469C27.7559 36.5469 27.4669 36.5279 27.2729 36.5259V36.6329H27.3199C27.5009 36.6329 27.7159 36.6649 27.7159 36.9449V39.5929C27.7159 39.8729 27.5019 39.9049 27.3199 39.9049H27.2729V40.0099C27.4669 40.0079 27.7519 39.9899 27.9939 39.9899C28.2379 39.9899 28.5309 40.0099 28.7689 40.0099V39.9049H28.7219C28.5389 39.9039 28.3259 39.8719 28.3259 39.5929V36.9449C28.3259 36.6639 28.5369 36.6329 28.7219 36.6329Z" fill="white"/>
<path d="M13.707 34.2371H13.539C13.278 34.2371 13.075 34.237 13.075 33.927V31.5291C13.075 30.8041 12.796 30.2281 12.006 30.2281C11.383 30.2281 10.927 30.5441 10.396 30.9251V30.3211C10.396 30.2461 10.368 30.2271 10.342 30.2271C9.89402 30.4221 9.51402 30.5431 9.11402 30.6741V30.8501C9.55002 31.0251 9.65402 31.1181 9.65402 31.4631H9.65302V33.9261C9.65302 34.2361 9.46802 34.2361 9.20802 34.2361H9.04102V34.475C9.37502 34.465 9.71001 34.4561 10.044 34.4561C10.379 34.4561 10.705 34.475 11.03 34.475V34.2361H10.863C10.603 34.2361 10.396 34.2361 10.396 33.9261V31.1741C10.705 30.9711 11.179 30.7271 11.475 30.7271C12.006 30.7271 12.33 30.9901 12.33 31.5201V33.9261C12.33 34.2371 12.145 34.2371 11.885 34.2371H11.718V34.475C12.05 34.467 12.386 34.4571 12.721 34.4571C13.056 34.4571 13.38 34.475 13.707 34.475C13.707 34.474 13.707 34.2371 13.707 34.2371Z" fill="white"/>
<path d="M14.141 36.6851C13.99 36.6851 13.924 36.7021 13.853 36.7061V38.2141H14.101C14.607 38.2141 14.879 38.0231 14.879 37.4251C14.878 36.9731 14.591 36.6851 14.141 36.6851ZM14.101 38.1921H13.875V36.7251C13.94 36.7191 14.004 36.7051 14.141 36.7051C14.581 36.7091 14.856 36.9821 14.859 37.4241C14.855 38.0121 14.601 38.1851 14.101 38.1921Z" fill="white"/>
<path d="M26.948 36.33L26.921 36.322L26.919 36.344C26.911 36.477 26.811 36.479 26.669 36.482H24.059H24.036C23.905 36.479 23.813 36.477 23.778 36.35L23.772 36.334H23.634H23.613V36.355C23.613 36.501 23.601 36.642 23.583 36.782C23.566 36.928 23.542 37.07 23.521 37.213L23.519 37.238H23.695H23.714L23.718 37.22C23.802 36.845 23.792 36.782 24.167 36.777H24.975L24.977 39.457C24.968 39.85 24.858 39.853 24.579 39.859H24.483H24.46V40.033V40.054H24.483C24.68 40.054 25.036 40.033 25.337 40.033C25.608 40.033 25.962 40.054 26.161 40.054H26.18V39.88V39.86H26.061C25.821 39.854 25.667 39.829 25.665 39.447V36.778H26.474C26.792 36.778 26.814 37.053 26.827 37.243L26.829 37.272L27.007 37.207L27.022 37.201V37.186C27.022 37.051 27.022 36.914 27.032 36.78C27.048 36.643 27.067 36.509 27.087 36.372L27.093 36.351L26.948 36.33ZM27.007 36.778C26.997 36.916 26.997 37.051 26.997 37.186L26.846 37.244C26.835 37.057 26.811 36.759 26.473 36.759H25.641V39.449C25.641 39.841 25.819 39.886 26.061 39.886H26.155V40.037C25.962 40.037 25.606 40.016 25.333 40.016C25.03 40.016 24.675 40.037 24.479 40.037V39.886H24.575C24.854 39.886 24.996 39.862 24.996 39.461V36.759H24.166C23.787 36.759 23.77 36.851 23.694 37.22H23.543C23.564 37.076 23.59 36.937 23.605 36.787C23.626 36.645 23.635 36.505 23.635 36.357H23.758C23.797 36.508 23.924 36.503 24.06 36.503H26.67C26.808 36.503 26.933 36.498 26.942 36.347L27.063 36.368C27.042 36.506 27.025 36.639 27.007 36.778Z" fill="white"/>
<path d="M26.9599 36.373C26.9379 36.52 26.7939 36.529 26.6639 36.529H24.0549H24.0299C23.9119 36.53 23.7819 36.524 23.7349 36.383H23.6529C23.6509 36.521 23.6439 36.658 23.6229 36.792C23.6099 36.929 23.5839 37.065 23.5649 37.197H23.6719C23.7379 36.845 23.7829 36.73 24.1599 36.736H25.0089V39.462C25.0089 39.867 24.8469 39.907 24.5679 39.908H24.4949V40.013C24.6949 40.011 25.0359 39.992 25.3289 39.992C25.5939 39.992 25.9319 40.011 26.1299 40.013V39.907H26.0569C25.8149 39.906 25.6179 39.845 25.6179 39.449V36.735H26.4699C26.8099 36.736 26.8549 37.026 26.8629 37.214L26.9739 37.173C26.9739 37.042 26.9739 36.909 26.9839 36.777C26.9989 36.646 27.0169 36.517 27.0379 36.386L26.9599 36.373Z" fill="white"/>
<path d="M31.7689 32.7139C31.5829 33.6879 30.8199 34.3209 29.9019 34.3209C28.4709 34.3209 27.1309 32.9729 27.1309 31.0939C27.1309 28.8629 28.6819 28.1469 29.7519 28.1469C30.7929 28.1469 31.5619 28.5819 31.7399 29.6719H31.9699L31.8779 28.3419C31.1619 28.0919 30.4349 27.8479 29.6829 27.8479C27.8609 27.8479 26.1609 29.2149 26.1609 31.1199C26.1609 33.2129 27.5379 34.6169 29.7119 34.6169C30.3279 34.6179 31.3779 34.3669 31.7689 34.1249L31.9819 32.7689L31.7689 32.7139Z" fill="white"/>
<path d="M23.9089 39.856C23.7509 39.861 23.6579 39.805 23.5999 39.674C23.5359 39.524 23.4749 39.338 23.4129 39.158L22.4799 36.512C22.4629 36.469 22.4499 36.424 22.4349 36.383C22.4179 36.358 22.3919 36.354 22.3789 36.354C22.3579 36.354 22.3449 36.362 22.3299 36.367C22.2309 36.429 22.0279 36.531 21.8709 36.584C21.8279 36.786 21.7359 37.037 21.6699 37.226L20.8589 39.548C20.7849 39.755 20.6289 39.86 20.4409 39.86H20.4109H20.3899V40.034V40.055H20.4139C20.5949 40.045 20.7759 40.034 20.9589 40.034C21.1609 40.034 21.3679 40.045 21.5689 40.055H21.5909V39.881V39.86H21.5139C21.3459 39.86 21.1579 39.83 21.1559 39.706C21.1559 39.624 21.2169 39.49 21.2679 39.317L21.4239 38.805H22.5389L22.7319 39.377C22.7889 39.537 22.8359 39.676 22.8319 39.732C22.8319 39.83 22.6599 39.857 22.5409 39.857H22.4839H22.4629V40.031V40.054L22.4849 40.052C22.7449 40.043 22.9949 40.031 23.2429 40.031C23.4829 40.031 23.7139 40.043 23.9379 40.052L23.9599 40.054V39.877V39.856H23.9089V39.856ZM23.9419 40.036H23.9409C23.7129 40.026 23.4879 40.015 23.2459 40.015C22.9979 40.015 22.7439 40.026 22.4859 40.036V39.886H22.5429C22.6599 39.886 22.8549 39.865 22.8549 39.739C22.8549 39.674 22.8099 39.539 22.7539 39.376L22.5559 38.789H21.4089L21.2479 39.316C21.1969 39.486 21.1359 39.62 21.1359 39.71C21.1359 39.863 21.3489 39.887 21.5149 39.887H21.5719V40.039C21.3679 40.029 21.1619 40.019 20.9579 40.019C20.7759 40.019 20.5949 40.028 20.4129 40.039V39.887H20.4429C20.6399 39.887 20.8089 39.77 20.8819 39.557L21.6919 37.238C21.7579 37.05 21.8499 36.8 21.8799 36.609C22.0409 36.553 22.2429 36.454 22.3379 36.391C22.3539 36.387 22.3609 36.381 22.3789 36.381C22.3949 36.381 22.4039 36.381 22.4149 36.397C22.4299 36.438 22.4449 36.484 22.4609 36.522L23.3929 39.168C23.4539 39.346 23.5119 39.531 23.5809 39.686C23.6419 39.829 23.7469 39.887 23.9149 39.887H23.9419V40.036V40.036Z" fill="white"/>
<path d="M23.9141 39.908C23.7401 39.908 23.6211 39.84 23.5591 39.691C23.4931 39.537 23.4321 39.348 23.3711 39.17L22.4401 36.524C22.4231 36.485 22.4101 36.437 22.3951 36.402C22.3931 36.396 22.3931 36.396 22.3871 36.396H22.3801C22.3691 36.396 22.3611 36.401 22.3521 36.404C22.2541 36.466 22.0501 36.567 21.9011 36.607C21.8691 36.798 21.7781 37.05 21.7121 37.238L20.9031 39.56C20.8261 39.78 20.6491 39.906 20.4431 39.906H20.4351V40.011C20.6081 40 20.7831 39.99 20.9601 39.99C21.1561 39.99 21.3551 40.001 21.5481 40.011V39.906H21.5151C21.3511 39.903 21.1201 39.885 21.1141 39.706C21.1151 39.605 21.1771 39.475 21.2271 39.305L21.3931 38.762H22.5701L22.7751 39.366C22.8321 39.529 22.8791 39.663 22.8791 39.737C22.8731 39.891 22.6581 39.904 22.5431 39.908H22.5101V40.012C22.7601 40.002 23.0061 39.991 23.2461 39.991C23.4801 39.991 23.7011 40.002 23.9221 40.012V39.908H23.9141ZM21.4741 38.525L21.9581 37.049H21.9741H21.9851H22.0001L22.4821 38.525H21.4741Z" fill="white"/>
<path d="M21.9861 37.071H21.9751V37.074L21.5061 38.505H22.4511L21.9861 37.071ZM21.9801 37.125L22.4191 38.479H21.5351L21.9801 37.125Z" fill="white"/>
</g>
<defs>
<clipPath id="clip0">
<rect width="43.96" height="43.96" fill="white"/>
</clipPath>
</defs>
</svg>
